<?xml version="1.0" encoding="utf-8"?>
<!-- Generator: Adobe Illustrator 17.0.0, SVG Export Plug-In . SVG Version: 6.00 Build 0)  -->
<!DOCTYPE svg PUBLIC "-//W3C//DTD SVG 1.1//EN" "http://www.w3.org/Graphics/SVG/1.1/DTD/svg11.dtd">
<svg version="1.1" id="Layer_1" xmlns="http://www.w3.org/2000/svg" xmlns:xlink="http://www.w3.org/1999/xlink" x="0px" y="0px"
	 width="373.71px" height="123.725px" viewBox="0 0 373.71 123.725" enable-background="new 0 0 373.71 123.725"
	 xml:space="preserve">
<g>
	<path d="M165.311,77.748h15.554c0.998,0,1.8,0.462,2.405,1.385c0.072,0.325,0.107,0.581,0.107,0.769
		c0,0.701-0.303,1.471-0.909,2.309c-1.051,0.855-2.993,1.282-5.826,1.282h-7.055c-0.072,0-0.41,0.924-1.016,2.77
		c-0.195,0.539-0.338,0.846-0.427,0.923h-4.597l-0.107-0.051c1.033-2.804,1.942-5.42,2.726-7.848V78.98
		c0-0.351-0.285-0.744-0.855-1.18V77.748z M170.336,81.442h7.804c0.249-0.718,0.374-1.129,0.374-1.231v-0.154
		c0-0.239-0.125-0.359-0.374-0.359h-6.093c-0.739,0-1.202,0.274-1.39,0.821L170.336,81.442z"/>
	<path d="M183.496,77.748h15.554c0.998,0,1.8,0.462,2.405,1.385c0.072,0.325,0.107,0.581,0.107,0.769
		c0,0.607-0.268,1.343-0.802,2.206c-1.096,0.923-2.931,1.385-5.506,1.385v0.052c1.337,0.778,3.243,2.317,5.719,4.617
		c1.034,1.171,1.55,1.77,1.55,1.796c0.142,0.171,0.214,0.274,0.214,0.308h-0.054c-6.271-3.565-10.993-5.822-14.164-6.772h-0.748
		c-0.072,0-0.41,0.924-1.016,2.77c-0.195,0.539-0.338,0.846-0.427,0.923h-4.597l-0.107-0.051c1.033-2.804,1.942-5.42,2.726-7.848
		V78.98c0-0.351-0.285-0.744-0.855-1.18V77.748z M188.521,81.442h7.804c0.249-0.718,0.374-1.129,0.374-1.231v-0.154
		c0-0.239-0.125-0.359-0.374-0.359h-6.093c-0.739,0-1.202,0.274-1.39,0.821L188.521,81.442z"/>
	<path d="M201.592,77.748h15.982v0.051c-1.435,1.266-2.788,1.898-4.062,1.898h-5.292c-0.739,0-1.202,0.274-1.39,0.821l-0.321,0.923
		h8.338v0.052c-1.604,1.334-2.922,2-3.955,2h-5.078c-0.285,0.616-0.427,1.009-0.427,1.18v0.051c0.044,0.308,0.24,0.462,0.588,0.462
		h5.559c1.595,0,2.824,0.633,3.688,1.898v0.103h-10.477c-2.414,0-3.875-0.462-4.383-1.385l-0.054-0.359
		c1.247-3.898,1.906-6.07,1.978-6.514c0-0.462-0.232-0.821-0.695-1.077V77.748z"/>
	<path d="M222.033,77.748h10.422v0.051c-1.122,1.334-2.832,2.001-5.131,2.001h-5.398c-0.641,0-0.962,0.222-0.962,0.667
		c-0.089,0.094-0.143,0.265-0.16,0.513c0,0.308,0.267,0.462,0.802,0.462h4.329c2.352,0.162,3.528,0.693,3.528,1.59v0.154
		c-0.535,1.881-0.98,2.821-1.336,2.821c-0.874,0.787-2.655,1.18-5.345,1.18h-6.147c-0.365-0.316-1.007-1-1.924-2.052
		c0.036,0,0.054-0.018,0.054-0.052c2.637,0.034,4.686,0.052,6.147,0.052h2.245c0.579,0,0.935-0.24,1.069-0.719
		c0.142-0.444,0.213-0.701,0.213-0.769c-0.249-0.137-0.57-0.205-0.962-0.205h-4.383c-1.96-0.146-3.082-0.573-3.367-1.283
		c-0.071,0-0.107-0.085-0.107-0.257c0-0.521,0.338-1.427,1.015-2.719C217.579,78.227,219.379,77.748,222.033,77.748"/>
	<path d="M236.713,77.748h10.422v0.051c-1.122,1.334-2.832,2.001-5.131,2.001h-5.398c-0.641,0-0.962,0.222-0.962,0.667
		c-0.089,0.094-0.143,0.265-0.16,0.513c0,0.308,0.267,0.462,0.802,0.462h4.329c2.352,0.162,3.528,0.693,3.528,1.59v0.154
		c-0.535,1.881-0.98,2.821-1.336,2.821c-0.874,0.787-2.655,1.18-5.345,1.18h-6.147c-0.365-0.316-1.007-1-1.924-2.052
		c0.036,0,0.054-0.018,0.054-0.052c2.637,0.034,4.686,0.052,6.147,0.052h2.245c0.579,0,0.935-0.24,1.069-0.719
		c0.142-0.444,0.213-0.701,0.213-0.769c-0.249-0.137-0.57-0.205-0.962-0.205h-4.383c-1.96-0.146-3.082-0.573-3.367-1.283
		c-0.071,0-0.107-0.085-0.107-0.257c0-0.521,0.338-1.427,1.015-2.719C232.259,78.227,234.058,77.748,236.713,77.748"/>
</g>
<g>
	<defs>
		<path id="SVGID_1_" d="M162.69,69.743c-0.478,0-4.332,1.932-11.562,5.796c-0.009-0.01-0.024-0.023-0.034-0.034
			c-0.018,0.011-0.042,0.025-0.056,0.034c-4.659-3.864-7.227-5.796-7.704-5.796h-14.275l-0.084,0.252
			c7.12,5.335,11.951,9.073,14.492,11.215c-3.664,1.365-10.647,5.524-20.945,12.476c-5.269,4.095-7.976,6.363-8.123,6.805h0.13
			c15.064-7.258,26.068-12.03,33.014-14.317c5.425,2.287,13.251,7.059,23.484,14.317h0.13c0.147-0.442-1.051-2.71-3.593-6.805
			c-5.671-6.952-9.885-11.11-12.641-12.476c3.968-2.142,11.287-5.88,21.958-11.215l0.084-0.252H162.69z"/>
	</defs>
	<clipPath id="SVGID_2_">
		<use xlink:href="#SVGID_1_"  overflow="visible"/>
	</clipPath>
	<polygon clip-path="url(#SVGID_2_)" fill-rule="evenodd" clip-rule="evenodd" fill="#17639F" points="136.615,113.627 
		102.212,113.627 120.604,67.673 155.008,67.673 	"/>
	<polygon clip-path="url(#SVGID_2_)" fill-rule="evenodd" clip-rule="evenodd" fill="#2B3990" points="171.019,113.627 
		136.615,113.627 155.007,67.673 189.411,67.673 	"/>
	<polygon clip-path="url(#SVGID_2_)" fill-rule="evenodd" clip-rule="evenodd" fill="#27AAE1" points="189.411,67.673 
		148.483,83.953 120.587,67.673 161.026,52.614 	"/>
</g>
<g>
	<path d="M311.807,8.443c29.123,0,52.731,23.609,52.731,52.731c0,29.123-23.608,52.731-52.731,52.731
		c-29.122,0-52.731-23.609-52.731-52.731C259.076,32.052,282.684,8.443,311.807,8.443 M311.807,4.851
		c-31.057,0-56.323,25.266-56.323,56.323c0,31.057,25.266,56.324,56.323,56.324s56.323-25.266,56.323-56.324
		C368.13,30.117,342.863,4.851,311.807,4.851"/>
	<path fill-rule="evenodd" clip-rule="evenodd" d="M361.169,61.174c0,27.262-22.1,49.362-49.362,49.362
		c-27.262,0-49.363-22.1-49.363-49.362s22.1-49.362,49.363-49.362C339.069,11.812,361.169,33.912,361.169,61.174"/>
</g>
<g>
	<defs>
		<path id="SVGID_3_" d="M262.444,61.174c0,27.262,22.1,49.363,49.362,49.363c27.262,0,49.363-22.1,49.363-49.363
			c0-27.261-22.101-49.362-49.363-49.362C284.544,11.812,262.444,33.912,262.444,61.174"/>
	</defs>
	<clipPath id="SVGID_4_">
		<use xlink:href="#SVGID_3_"  overflow="visible"/>
	</clipPath>
	
		<rect x="262.35" y="59.2" clip-path="url(#SVGID_4_)" fill-rule="evenodd" clip-rule="evenodd" fill="#17639F" width="49.401" height="52.079"/>
	
		<rect x="311.751" y="59.2" clip-path="url(#SVGID_4_)" fill-rule="evenodd" clip-rule="evenodd" fill="#2B3990" width="49.401" height="52.079"/>
	<polygon clip-path="url(#SVGID_4_)" fill-rule="evenodd" clip-rule="evenodd" fill="#27AAE1" points="361.152,59.2 311.739,77.65 
		262.326,59.2 311.739,42.134 	"/>
</g>
<g>
	<path d="M13.922,53.612c0,1.424,0.505,2.642,1.515,3.652c1.011,1.011,2.228,1.515,3.652,1.515h32.726
		c1.148,0,1.722,0.574,1.722,1.722v5.168c0,1.149-0.574,1.722-1.722,1.722H19.089c-3.813,0-7.062-1.344-9.749-4.031
		c-2.687-2.687-4.03-5.936-4.03-9.749V20.886c0-1.148,0.574-1.722,1.722-1.722h5.167c1.148,0,1.722,0.574,1.722,1.722V53.612z"/>
	<path d="M79.355,27.604L64.714,65.67c-0.574,1.149-1.149,1.722-1.722,1.722h-6.028c-1.149,0-1.722-0.574-1.722-1.722l17.224-44.784
		c0.574-1.148,1.148-1.722,1.722-1.722h10.335c0.574,0,1.148,0.574,1.722,1.722l17.224,44.784c0,1.149-0.574,1.722-1.722,1.722
		h-6.029c-0.574,0-1.149-0.574-1.722-1.722L79.355,27.604z"/>
	<path d="M112.4,27.776H94.314c-1.149,0-1.722-0.574-1.722-1.722v-5.167c0-1.148,0.574-1.722,1.722-1.722h44.783
		c1.148,0,1.722,0.574,1.722,1.722v5.167c0,1.149-0.574,1.722-1.722,1.722h-18.085V65.67c0,1.149-0.574,1.722-1.722,1.722h-5.167
		c-1.149,0-1.722-0.574-1.722-1.722V27.776z"/>
	<path d="M152.717,27.604L138.076,65.67c-0.574,1.149-1.149,1.722-1.722,1.722h-6.028c-1.149,0-1.722-0.574-1.722-1.722
		l17.224-44.784c0.574-1.148,1.148-1.722,1.722-1.722h10.335c0.574,0,1.148,0.574,1.722,1.722l17.224,44.784
		c0,1.149-0.574,1.722-1.722,1.722h-6.029c-0.574,0-1.149-0.574-1.722-1.722L152.717,27.604z"/>
	<path d="M197.48,32.84l-9.474,32.83c-0.574,1.149-1.148,1.722-1.722,1.722h-6.028c-1.149,0-1.722-0.573-1.722-1.722l12.919-44.784
		c0.573-1.148,1.148-1.722,1.722-1.722h8.612c0.573,0,1.148,0.574,1.722,1.722l9.474,32.83l9.473-32.83
		c0.573-1.148,1.148-1.722,1.722-1.722h8.613c0.574,0,1.148,0.574,1.722,1.722l12.918,44.784c0,1.149-0.574,1.722-1.722,1.722
		h-6.028c-0.574,0-1.149-0.573-1.722-1.722l-9.474-32.83l-9.473,32.83c-0.575,1.149-1.149,1.722-1.723,1.722h-8.612
		c-0.575,0-1.148-0.573-1.723-1.722L197.48,32.84z"/>
</g>
</svg>
